<?xml version="1.0" encoding="utf-8"?>
<!-- Generator: Adobe Illustrator 24.0.1, SVG Export Plug-In . SVG Version: 6.00 Build 0)  -->
<svg version="1.1" id="_x34_57bf273-24a3-4fd8-a857-e9b918267d6a"
	 xmlns="http://www.w3.org/2000/svg" xmlns:xlink="http://www.w3.org/1999/xlink" x="0px" y="0px" viewBox="0 0 698 698"
	 style="enable-background:new 0 0 698 698;" xml:space="preserve">
<style type="text/css">
	.st0{opacity:0.5;}
	.st1{fill:url(#SVGID_1_);}
	.st2{fill:#F5F5F5;}
	.st3{fill:#38D39F;}
	.st4{fill:#333333;}
	.st5{opacity:0.1;enable-background:new    ;}
	.st6{fill:#FDB797;}
	.st7{fill:#3A110C;}
	.st8{fill:#FFFFFF;}
	.st9{fill:#F8BABD;}
	.st10{fill:#BE1E2D;}
	.st11{fill:#D35F5A;}
</style>
<title>profile pic</title>
<g class="st0">
	
		<linearGradient id="SVGID_1_" gradientUnits="userSpaceOnUse" x1="349" y1="2" x2="349" y2="700" gradientTransform="matrix(1 0 0 -1 0 700)">
		<stop  offset="0" style="stop-color:#808080;stop-opacity:0.25"/>
		<stop  offset="0.54" style="stop-color:#808080;stop-opacity:0.12"/>
		<stop  offset="1" style="stop-color:#808080;stop-opacity:0.1"/>
	</linearGradient>
	<circle class="st1" cx="349" cy="349" r="349"/>
</g>
<circle class="st2" cx="349.7" cy="346.8" r="341.6"/>
<path class="st3" d="M350,689.8c66.8,0.1,132.1-19.4,187.8-56.2c-12.6-68.8-60.5-72.7-60.5-72.7H213.1c0,0-45.2,3.7-59.3,67
	C211.2,668.3,279.8,689.9,350,689.8z"/>
<circle class="st4" cx="346.4" cy="339.6" r="164.9"/>
<path class="st5" d="M293.1,476.9h105.7l0,0v84.5c0,29.2-23.6,52.8-52.8,52.8l0,0c-29.2,0-52.8-23.7-52.8-52.8c0,0,0,0,0,0
	L293.1,476.9L293.1,476.9L293.1,476.9z"/>
<path class="st6" d="M296.5,473h99c1.9,0,3.4,1.5,3.4,3.4l0,0v81.2c0,29.2-23.6,52.8-52.8,52.8c0,0,0,0,0,0l0,0
	c-29.2,0-52.8-23.7-52.8-52.8c0,0,0,0,0,0v-81.2C293.2,474.5,294.7,473,296.5,473z"/>
<path class="st5" d="M293.3,516.8c34.1,12.7,71.5,12.8,105.7,0.3v-13H293.3V516.8z"/>
<circle class="st6" cx="346.4" cy="372.4" r="151.5"/>
<path class="st5" d="M238.5,234.7c0,0,63.8,129.6,243.9,54.3l-41.9-65.7l-74.3-26.7L238.5,234.7z"/>
<path class="st4" d="M238.5,232.8c0,0,63.8,129.6,243.9,54.3l-41.9-65.7l-74.3-26.7L238.5,232.8z"/>
<path class="st4" d="M237.9,224c4.3-13.3,11.7-25.4,21.7-35.3c29.8-29.5,78.6-35.7,103.7-69.2c6,9.3,1.4,23.6-9,27.6
	c24-0.2,51.8-2.3,65.4-22c6.8,15.9,3.9,34.4-7.6,47.4c21.3,1,44,15.4,45.3,36.6c0.9,14.2-8,27.6-19.6,35.7s-25.7,11.9-39.6,14.9
	C357.9,268.7,211.5,306.1,237.9,224z"/>
<ellipse class="st6" cx="194.9" cy="372.3" rx="14.1" ry="26.4"/>
<ellipse class="st6" cx="497.8" cy="372.3" rx="14.1" ry="26.4"/>
<g>
	<g>
		<g>
			<path class="st7" d="M262.1,336.8c-0.1,0-0.1,0-0.2,0c-12.3-0.7-18.6-9.8-18.9-10.2c-0.9-1.4-0.6-3.3,0.8-4.2
				c1.4-0.9,3.3-0.6,4.2,0.8c0.2,0.3,5,7,14.2,7.6c1.7,0.1,2.9,1.5,2.8,3.2C265,335.6,263.6,336.8,262.1,336.8z"/>
		</g>
		<g>
			<path class="st7" d="M293.7,356.3c0-17.4-10.2-31.4-22.8-31.4c-12.6,0-22.8,14.1-22.8,31.4c0,17.4,10.2,31.4,22.8,31.4
				C283.5,387.8,293.7,373.7,293.7,356.3z"/>
		</g>
		<g>
			<path class="st8" d="M288.3,344.4c0-6.6-3.9-12-8.7-12c-4.8,0-8.7,5.4-8.7,12c0,6.6,3.9,11.9,8.7,11.9
				C284.4,356.3,288.3,351,288.3,344.4z"/>
		</g>
	</g>
	<g>
		<path class="st7" d="M461.1,386.1c0,0-0.1,0-0.2,0l-67.9-3.3c-1.5-0.1-2.7-1.1-3-2.6c-0.3-1.4,0.4-2.9,1.7-3.6l59.6-30.6
			c1.6-0.8,3.6-0.2,4.4,1.4c0.8,1.6,0.2,3.6-1.4,4.4l-48.7,25l55.7,2.7c1.8,0.1,3.2,1.6,3.1,3.4
			C464.3,384.8,462.8,386.1,461.1,386.1z"/>
	</g>
	<g>
		<path class="st9" d="M295.4,414.1c0,8.1-11.5,14.7-25.8,14.7c-14.2,0-25.8-6.6-25.8-14.7c0-8.1,11.5-14.7,25.8-14.7
			C283.9,399.4,295.4,405.9,295.4,414.1z"/>
	</g>
	<g>
		<path class="st9" d="M445.4,414.1c0,8.1-11.5,14.7-25.8,14.7c-14.2,0-25.8-6.6-25.8-14.7c0-8.1,11.5-14.7,25.8-14.7
			C433.9,399.4,445.4,405.9,445.4,414.1z"/>
	</g>
	<g>
		<g>
			<path class="st10" d="M376,420v13.9c0,13.8-1.4,53.4-30.1,54.7l0,0c-30.1-2.2-30.1-40.9-30.1-54.7v-14.7
				C315.9,419.2,364.1,424.5,376,420z"/>
			<path class="st7" d="M345.9,490.6c0,0-0.1,0-0.1,0c-31.9-2.3-31.9-43.2-31.9-56.7v-14.7c0-0.6,0.2-1.1,0.7-1.5
				c0.4-0.4,1-0.6,1.5-0.5c0.2,0,23.9,2.6,41.9,2.6c10.7,0,15.3-0.9,17.3-1.7c0.6-0.2,1.3-0.1,1.8,0.2c0.5,0.4,0.9,1,0.9,1.6v13.9
				C378,469.5,366.6,489.6,345.9,490.6C346,490.6,345.9,490.6,345.9,490.6z M317.8,421.4v12.5c0,13.8,0,50.6,28.1,52.7
				c23.2-1.2,28.1-29.3,28.1-52.7v-11.2c-3.6,0.8-8.9,1.2-16.1,1.2l0,0C343,423.8,324.2,422,317.8,421.4z"/>
		</g>
		<g>
			<path class="st8" d="M375.9,439.8c0.1-2.3,0.1-4.3,0.1-5.9V420c-22.2,2.7-60.1-0.8-60.1-0.8v14.7c0,1.6,0,3.7,0,5.9H375.9z"/>
			<path class="st7" d="M375.9,441.8h-60c-1.1,0-2-0.9-2-1.9c-0.1-2.3-0.1-4.3-0.1-6v-14.7c0-0.6,0.2-1.1,0.6-1.5
				c0.4-0.4,1-0.5,1.5-0.5c0.2,0,19.9,1.8,38.9,1.8c8.3,0,15.3-0.3,20.8-1c0.6-0.1,1.1,0.1,1.5,0.5c0.4,0.4,0.7,0.9,0.7,1.5v13.9
				c0,1.7,0,3.7-0.1,6C377.8,440.9,376.9,441.8,375.9,441.8z M317.9,437.8h56.1c0-1.5,0-2.8,0-3.9v-11.6c-5.3,0.5-11.7,0.8-19.1,0.8
				c-15.5,0-31.4-1.2-37.1-1.6v12.5C317.8,435,317.8,436.3,317.9,437.8z"/>
		</g>
		<g>
			<path class="st11" d="M349.2,466.2c-2.1,2.3-4.3,2.8-6.6,0.7c-8.6-8.4-20.3,3.5-20.7,4.6c4.2,7.5,10,16.9,24,17.5
				c13.9-1.1,18.7-9.5,23.1-16.5C370.6,469.9,357.6,456.8,349.2,466.2z"/>
			<path class="st7" d="M345.9,490.7C345.9,490.7,345.9,490.7,345.9,490.7c-15.6-0.8-21.8-11.8-25.6-18.4c-0.3-0.5-0.3-1-0.1-1.5
				c0.5-1.4,7.6-8.7,15.4-8.7c3.1,0,5.9,1.2,8.3,3.5c1.6,1.5,3.1,0.5,4-0.6c2.3-2.6,5.2-4,8.4-4c6,0,12,4.9,13.9,8.5
				c0.9,1.6,1,2.9,0.3,3.9l-0.4,0.6c-4.3,6.9-9.7,15.6-24.1,16.7C346,490.7,346,490.7,345.9,490.7z M324,471.6
				c4.6,8,9.9,15,21.9,15.6c12.5-1.1,16.9-8.2,21.2-15.1l0.2-0.3c-0.5-1.7-5.5-7.2-11.1-7.2c-2.2,0-4.1,0.9-5.7,2.8
				c-2.9,3.2-6.3,3.5-9.1,0.8c-1.7-1.7-3.6-2.5-5.8-2.5C330.7,465.7,325.8,469.7,324,471.6z"/>
		</g>
	</g>
</g>
</svg>
